<svg width="14" height="18" viewBox="0 0 14 18" fill="none" xmlns="http://www.w3.org/2000/svg">
<path d="M1.44141 3.35254L12.8164 3.35254" stroke="#1877F2" stroke-linecap="round"/>
<path d="M1.44141 5.6084V15.8087C1.44141 16.3754 1.78266 17.5088 3.14766 17.5088C4.51266 17.5088 9.02474 17.5088 11.1102 17.5088C11.6789 17.5088 12.8164 17.1688 12.8164 15.8087C12.8164 14.4487 12.8164 8.44182 12.8164 5.6084" stroke="#1877F2" stroke-linecap="round"/>
<path d="M9.40234 2.78418L9.40234 0.83418C9.40234 0.725847 9.26584 0.50918 8.71984 0.50918C8.17384 0.50918 6.36901 0.50918 5.53484 0.50918C5.30734 0.50918 4.85234 0.57418 4.85234 0.83418C4.85234 1.09418 4.85234 2.24251 4.85234 2.78418" stroke="#1877F2" stroke-linecap="round"/>
<line x1="5.35547" y1="7.27148" x2="5.35547" y2="14.234" stroke="#1877F2" stroke-linecap="round"/>
<line x1="9.25391" y1="7.27148" x2="9.25391" y2="14.234" stroke="#1877F2" stroke-linecap="round"/>
</svg>
