<svg width="16" height="24" viewBox="0 0 16 24" fill="none" xmlns="http://www.w3.org/2000/svg">
<path d="M0.984375 5.05469L15.3379 5.05469" stroke="#1877F2" stroke-width="1.3039" stroke-linecap="round"/>
<path d="M0.984375 7.89844V20.7697C0.984375 21.4848 1.41498 22.9149 3.1374 22.9149C4.85983 22.9149 10.5534 22.9149 13.1849 22.9149C13.9026 22.9149 15.3379 22.4859 15.3379 20.7697C15.3379 19.0535 15.3379 11.4738 15.3379 7.89844" stroke="#1877F2" stroke-width="1.3039" stroke-linecap="round"/>
<path d="M11.0312 4.33594L11.0313 1.87533C11.0313 1.73863 10.859 1.46523 10.17 1.46523C9.48107 1.46523 7.20364 1.46523 6.15105 1.46523C5.86398 1.46523 5.28984 1.54725 5.28984 1.87533C5.28984 2.20341 5.28984 3.65244 5.28984 4.33594" stroke="#1877F2" stroke-width="1.3039" stroke-linecap="round"/>
<line x1="5.94492" y1="10.023" x2="5.94492" y2="18.7666" stroke="#1877F2" stroke-width="1.3039" stroke-linecap="round"/>
<line x1="10.8629" y1="10.023" x2="10.8629" y2="18.7666" stroke="#1877F2" stroke-width="1.3039" stroke-linecap="round"/>
</svg>
