<svg width="18" height="17" viewBox="0 0 18 17" fill="none" xmlns="http://www.w3.org/2000/svg">
<path d="M13.398 8.29321C12.1733 9.51789 11.2926 10.3192 10.475 10.6062C10.125 10.7291 9.81328 10.7438 9.48047 10.6443C9.12475 10.538 8.65326 10.2728 8.05667 9.67623C8.03028 9.64985 8.00449 9.62372 7.97928 9.59784C7.72393 9.33579 7.2973 9.3089 7.03666 9.56569C6.81022 9.7888 6.79029 10.1492 7.00923 10.3796C7.06395 10.4372 7.12056 10.4953 7.17908 10.5538C9.94407 13.3188 11.934 11.5123 14.2755 9.17079C16.6171 6.82925 18.5153 4.93105 15.6586 2.07433C12.7969 -0.7873 11.0118 1.00202 8.76917 3.24996L8.5621 3.45735C8.45964 3.55981 8.45879 3.72575 8.56049 3.82897L9.05737 4.3333C9.16232 4.43981 9.33396 4.44067 9.43969 4.33494L9.64773 4.12662C10.1623 3.61097 10.6124 3.15995 11.0547 2.77846C11.5547 2.3471 11.9636 2.07831 12.3223 1.94239C12.647 1.81931 12.9382 1.80084 13.2689 1.90289C13.6314 2.01474 14.1291 2.30007 14.781 2.95192C15.4052 3.57614 15.6804 4.06079 15.7894 4.41975C15.8901 4.75143 15.8736 5.05296 15.7505 5.39042C15.6164 5.75796 15.3516 6.17574 14.9301 6.67858C14.5092 7.18067 13.9929 7.69831 13.398 8.29321Z" fill="#1877F2"/>
<path d="M4.5161 8.74585C5.74079 7.52117 6.62147 6.71983 7.43902 6.43285C7.78903 6.31 8.10078 6.29526 8.4336 6.39472C8.78931 6.50102 9.26081 6.76624 9.8574 7.36283C9.88378 7.38922 9.90957 7.41534 9.93479 7.44122C10.1901 7.70327 10.6168 7.73016 10.8774 7.47337C11.1038 7.25027 11.1238 6.88989 10.9048 6.65943C10.8501 6.60183 10.7935 6.54378 10.735 6.48525C7.97 3.72026 5.98006 5.52672 3.63852 7.86827C1.29698 10.2098 -0.601222 12.108 2.2555 14.9647C5.11713 17.8264 6.90224 16.037 9.14489 13.7891L9.35196 13.5817C9.45442 13.4792 9.45527 13.3133 9.35357 13.2101L8.85669 12.7058C8.75175 12.5993 8.58011 12.5984 8.47438 12.7041L8.26633 12.9124C7.75173 13.4281 7.30162 13.8791 6.85937 14.2606C6.35932 14.692 5.95045 14.9607 5.59177 15.0967C5.26701 15.2197 4.97585 15.2382 4.64518 15.1362C4.28271 15.0243 3.78493 14.739 3.13308 14.0871C2.50886 13.4629 2.23369 12.9783 2.12466 12.6193C2.02392 12.2876 2.04049 11.9861 2.1636 11.6486C2.29767 11.2811 2.56249 10.8633 2.98399 10.3605C3.40486 9.85839 3.9212 9.34076 4.5161 8.74585Z" fill="#1877F2"/>
</svg>
