<svg width="424" height="289" viewBox="0 0 424 289" fill="none" xmlns="http://www.w3.org/2000/svg">
<path d="M302.089 264.851C313.155 217.888 345.409 111.857 423.412 33.6066L389.046 0.363281L378.357 11.6927V11.7238C329.834 63.5598 300.954 126.322 277.748 192.219C276.739 195.105 275.762 198.023 274.721 200.91C273.681 203.796 272.798 206.994 268.889 207.242C264.254 207.521 262.961 204.014 261.763 200.661C258.579 191.753 255.426 182.814 252.273 173.905L202.205 31.8995H156.078L102.762 188.587C102.005 190.791 101.217 193.026 100.492 195.23C100.334 195.726 100.145 196.223 99.9875 196.75L99.1047 199.358C97.4652 203.796 95.132 207.614 88.7001 207.211C81.1647 206.745 80.2818 200.32 78.5162 195.012C73.2193 178.965 67.8909 162.948 62.5941 146.932L48.7213 103.88C48.1853 102.142 47.6178 100.404 47.0502 98.6655C46.8926 98.1378 46.735 97.6412 46.5458 97.2067L43.6766 88.3604L0.765625 101.087L3.69782 109.964L60.3555 289H112.095L167.838 128.929C169.793 123.559 171.149 117.662 178.779 117.507C186.724 117.351 187.764 123.777 189.593 128.929C191.705 134.858 193.818 140.755 195.93 146.684L244.895 289H297.139L302.089 264.851Z" fill="#2874F7"/>
</svg>
